<?xml version="1.0" encoding="UTF-8"?>
<!DOCTYPE svg PUBLIC "-//W3C//DTD SVG 1.1//EN" "http://www.w3.org/Graphics/SVG/1.1/DTD/svg11.dtd">
<svg xmlns="http://www.w3.org/2000/svg" version="1.1" width="199px" height="53px" style="shape-rendering:geometricPrecision; text-rendering:geometricPrecision; image-rendering:optimizeQuality; fill-rule:evenodd; clip-rule:evenodd" xmlns:xlink="http://www.w3.org/1999/xlink">
<g><path style="opacity:0.982" fill="#c2e076" d="M 21.5,-0.5 C 24.1667,-0.5 26.8333,-0.5 29.5,-0.5C 30.8333,0.5 32.1667,1.5 33.5,2.5C 35.6292,9.91206 33.1292,15.2454 26,18.5C 20.0246,15.7007 17.1912,11.0341 17.5,4.5C 18.7503,2.84593 20.0837,1.17927 21.5,-0.5 Z"/></g>
<g><path style="opacity:0.097" fill="#0a0a0a" d="M 33.5,2.5 C 36.3888,5.49089 37.7221,9.15755 37.5,13.5C 34.126,15.8739 31.4593,18.8739 29.5,22.5C 26.5918,23.1593 26.2584,23.9926 28.5,25C 28.2716,25.3988 27.9382,25.5654 27.5,25.5C 22.9495,27.0458 19.6161,30.0458 17.5,34.5C 16.2719,35.3065 15.2719,36.3065 14.5,37.5C 3.12986,37.296 -1.37014,31.6293 1,20.5C 1.7083,19.6195 2.54163,18.9528 3.5,18.5C 2.94654,28.2114 7.27987,31.7114 16.5,29C 18.8878,26.9495 20.8878,24.6162 22.5,22C 20.3175,18.6526 17.6509,15.8193 14.5,13.5C 14.3379,11.4727 14.5045,9.4727 15,7.5C 15.2355,5.88066 16.0689,4.88066 17.5,4.5C 17.1912,11.0341 20.0246,15.7007 26,18.5C 33.1292,15.2454 35.6292,9.91206 33.5,2.5 Z"/></g>
<g><path style="opacity:0.759" fill="#fefffe" d="M 112.5,12.5 C 113.833,12.5 115.167,12.5 116.5,12.5C 116.5,18.5 116.5,24.5 116.5,30.5C 115.167,30.5 113.833,30.5 112.5,30.5C 112.5,24.5 112.5,18.5 112.5,12.5 Z"/></g>
<g><path style="opacity:0.732" fill="#fefffe" d="M 129.5,12.5 C 130.833,12.5 132.167,12.5 133.5,12.5C 133.5,18.5 133.5,24.5 133.5,30.5C 132.167,30.5 130.833,30.5 129.5,30.5C 129.5,24.5 129.5,18.5 129.5,12.5 Z"/></g>
<g><path style="opacity:0.732" fill="#fefffe" d="M 167.5,12.5 C 168.833,12.5 170.167,12.5 171.5,12.5C 171.5,18.5 171.5,24.5 171.5,30.5C 170.167,30.5 168.833,30.5 167.5,30.5C 167.5,24.5 167.5,18.5 167.5,12.5 Z"/></g>
<g><path style="opacity:0.981" fill="#c4e277" d="M 14.5,13.5 C 17.6509,15.8193 20.3175,18.6526 22.5,22C 20.8878,24.6162 18.8878,26.9495 16.5,29C 7.27987,31.7114 2.94654,28.2114 3.5,18.5C 5.92739,14.4572 9.59406,12.7906 14.5,13.5 Z"/></g>
<g><path style="opacity:0.984" fill="#c6e479" d="M 37.5,13.5 C 42.0354,12.953 45.702,14.2863 48.5,17.5C 50.2165,26.6099 46.5498,30.7766 37.5,30C 34.3343,27.9999 31.6676,25.4999 29.5,22.5C 31.4593,18.8739 34.126,15.8739 37.5,13.5 Z"/></g>
<g><path style="opacity:0.736" fill="#fefffe" d="M 55.5,13.5 C 57.5273,13.3379 59.5273,13.5045 61.5,14C 63.792,17.4162 65.9586,20.9162 68,24.5C 68.4986,20.8484 68.6653,17.1817 68.5,13.5C 69.8333,13.5 71.1667,13.5 72.5,13.5C 72.5,19.1667 72.5,24.8333 72.5,30.5C 70.4727,30.6621 68.4727,30.4955 66.5,30C 64.5421,27.2518 62.7088,24.4185 61,21.5C 60.502,24.4816 60.3354,27.4816 60.5,30.5C 58.8333,30.5 57.1667,30.5 55.5,30.5C 55.5,24.8333 55.5,19.1667 55.5,13.5 Z"/></g>
<g><path style="opacity:0.764" fill="#fefffe" d="M 91.5,13.5 C 92.8333,13.5 94.1667,13.5 95.5,13.5C 95.5,14.5 95.5,15.5 95.5,16.5C 96.8333,16.5 98.1667,16.5 99.5,16.5C 99.5,17.8333 99.5,19.1667 99.5,20.5C 98.1667,20.5 96.8333,20.5 95.5,20.5C 95.5,22.1667 95.5,23.8333 95.5,25.5C 96.8333,25.5 98.1667,25.5 99.5,25.5C 99.5,27.1667 99.5,28.8333 99.5,30.5C 97.0799,30.7076 94.7466,30.3742 92.5,29.5C 91.8469,25.7246 90.8469,22.0579 89.5,18.5C 90.5471,16.9436 91.2137,15.2769 91.5,13.5 Z"/></g>
<g><path style="opacity:0.702" fill="#fefffe" d="M 119.5,13.5 C 121.167,13.5 122.833,13.5 124.5,13.5C 124.5,14.5 124.5,15.5 124.5,16.5C 125.833,16.5 127.167,16.5 128.5,16.5C 128.5,17.8333 128.5,19.1667 128.5,20.5C 127.167,20.5 125.833,20.5 124.5,20.5C 124.5,22.1667 124.5,23.8333 124.5,25.5C 127.91,25.3838 129.244,27.0504 128.5,30.5C 125.881,30.7683 123.381,30.435 121,29.5C 119.035,24.2616 118.535,18.9283 119.5,13.5 Z"/></g>
<g><path style="opacity:0.775" fill="#fefffe" d="M 189.5,13.5 C 190.833,13.5 192.167,13.5 193.5,13.5C 193.5,14.5 193.5,15.5 193.5,16.5C 194.833,16.5 196.167,16.5 197.5,16.5C 197.5,17.8333 197.5,19.1667 197.5,20.5C 196.167,20.5 194.833,20.5 193.5,20.5C 193.5,22.1667 193.5,23.8333 193.5,25.5C 194.833,25.5 196.167,25.5 197.5,25.5C 197.5,27.1667 197.5,28.8333 197.5,30.5C 195.08,30.7076 192.747,30.3742 190.5,29.5C 189.847,25.7246 188.847,22.0579 187.5,18.5C 188.547,16.9436 189.214,15.2769 189.5,13.5 Z"/></g>
<g><path style="opacity:0.703" fill="#fefffe" d="M 74.5,16.5 C 75.8333,16.5 77.1667,16.5 78.5,16.5C 78.3354,19.5184 78.502,22.5184 79,25.5C 80.3333,26.8333 81.6667,26.8333 83,25.5C 83.3333,22.8333 83.6667,20.1667 84,17.5C 85.3561,16.6198 86.8561,16.2865 88.5,16.5C 88.5,21.1667 88.5,25.8333 88.5,30.5C 84.1905,30.4388 79.8572,29.9388 75.5,29C 74.5363,24.9341 74.203,20.7675 74.5,16.5 Z"/></g>
<g><path style="opacity:0.741" fill="#fefffe" d="M 101.5,16.5 C 103.979,17.0725 106.313,17.0725 108.5,16.5C 111.396,17.0237 112.063,18.5237 110.5,21C 108.899,21.2734 107.399,21.7734 106,22.5C 105.503,25.146 105.336,27.8127 105.5,30.5C 104.167,30.5 102.833,30.5 101.5,30.5C 101.5,25.8333 101.5,21.1667 101.5,16.5 Z"/></g>
<g><path style="opacity:0.759" fill="#fefffe" d="M 139.5,16.5 C 145.34,15.5793 149.007,17.9127 150.5,23.5C 148.084,30.5576 143.584,32.2243 137,28.5C 134.523,23.6692 135.356,19.6692 139.5,16.5 Z M 141.5,20.5 C 145.35,20.7007 146.35,22.5341 144.5,26C 139.664,26.0251 138.664,24.1918 141.5,20.5 Z"/></g>
<g><path style="opacity:0.756" fill="#fefffe" d="M 151.5,16.5 C 155.541,16.6569 159.541,17.1569 163.5,18C 164,18.5 164.5,19 165,19.5C 165.499,23.1516 165.665,26.8183 165.5,30.5C 164.167,30.5 162.833,30.5 161.5,30.5C 161.665,27.4816 161.498,24.4816 161,21.5C 158.546,19.987 156.879,20.6537 156,23.5C 155.503,25.8098 155.337,28.1432 155.5,30.5C 154.167,30.5 152.833,30.5 151.5,30.5C 151.5,25.8333 151.5,21.1667 151.5,16.5 Z"/></g>
<g><path style="opacity:0.748" fill="#fefffe" d="M 176.5,16.5 C 180.741,15.7498 184.074,17.0831 186.5,20.5C 184.922,21.2978 183.256,21.7978 181.5,22C 185.564,22.418 187.064,24.5847 186,28.5C 182,31.1667 178,31.1667 174,28.5C 173.517,27.552 173.351,26.552 173.5,25.5C 177.893,25.5432 178.226,25.0432 174.5,24C 172.84,20.7773 173.506,18.2773 176.5,16.5 Z"/></g>
<g><path style="opacity:0.998" fill="#c6e478" d="M 27.5,25.5 C 29.8327,28.0026 31.9993,30.6693 34,33.5C 34.441,43.3772 29.941,46.5439 20.5,43C 18.4152,40.5806 17.4152,37.7472 17.5,34.5C 19.6161,30.0458 22.9495,27.0458 27.5,25.5 Z"/></g>
<g><path style="opacity:0.103" fill="#0e0e0e" d="M 48.5,17.5 C 50.7482,19.8162 52.0816,22.6495 52.5,26C 50.92,34.0614 45.92,37.8947 37.5,37.5C 37.395,41.3189 36.5617,44.9855 35,48.5C 32.3177,50.3295 29.4844,51.6628 26.5,52.5C 26.1667,52.5 25.8333,52.5 25.5,52.5C 17.4342,51.5593 13.7676,46.5593 14.5,37.5C 15.2719,36.3065 16.2719,35.3065 17.5,34.5C 17.4152,37.7472 18.4152,40.5806 20.5,43C 29.941,46.5439 34.441,43.3772 34,33.5C 31.9993,30.6693 29.8327,28.0026 27.5,25.5C 27.9382,25.5654 28.2716,25.3988 28.5,25C 26.2584,23.9926 26.5918,23.1593 29.5,22.5C 31.6676,25.4999 34.3343,27.9999 37.5,30C 46.5498,30.7766 50.2165,26.6099 48.5,17.5 Z"/></g>
</svg>
